<?xml version="1.0" encoding="UTF-8"?>
<svg xmlns="http://www.w3.org/2000/svg" width="128" height="40" viewBox="0 0 128 40" fill="none">
  <g clip-path="url(#clip0_445_10)">
    <path d="M85.7943 39.4329C85.2744 39.4329 84.8508 39.3177 84.5238 39.0872C84.1963 38.8569 83.9827 38.5411 83.8828 38.1402L84.6623 37.7343C84.7871 38.3105 85.1844 38.5985 85.8542 38.5985C86.1588 38.5985 86.4052 38.5385 86.5925 38.4182C86.7799 38.2979 86.8936 38.1378 86.9337 37.9372C86.9834 37.7116 86.9236 37.5377 86.7537 37.4148C86.5836 37.2921 86.3089 37.1682 85.9291 37.0428C85.8091 37.003 85.6991 36.9628 85.5992 36.9226C85.4991 36.8827 85.3941 36.8324 85.2843 36.7722C85.1743 36.7121 85.0818 36.6508 85.007 36.588C84.9321 36.5255 84.8571 36.4517 84.7823 36.3664C84.7072 36.2813 84.6548 36.1909 84.6247 36.0959C84.5946 36.0008 84.5695 35.8905 84.5499 35.7651C84.5297 35.64 84.5373 35.5071 84.5723 35.3668C84.6522 34.9109 84.8709 34.565 85.2282 34.3297C85.5854 34.0942 85.9889 33.9765 86.4388 33.9765C86.8685 33.9765 87.2298 34.0806 87.522 34.2883C87.8143 34.4963 88.023 34.7757 88.148 35.1263L87.3909 35.5246C87.211 35.0486 86.8712 34.8107 86.3716 34.8107C86.1315 34.8107 85.9266 34.8659 85.7569 34.976C85.5868 35.0862 85.4819 35.2366 85.442 35.4271C85.3971 35.6527 85.4558 35.8267 85.6182 35.9495C85.7806 36.0722 86.0467 36.1987 86.4165 36.329C86.6513 36.4143 86.8362 36.4893 86.9713 36.5546C87.1062 36.6197 87.2623 36.7161 87.4397 36.8439C87.6169 36.9718 87.7358 37.1346 87.7957 37.3325C87.8557 37.5304 87.8606 37.7597 87.8106 38.0203C87.7257 38.4762 87.5008 38.8257 87.1361 39.0687C86.7712 39.3117 86.3239 39.4332 85.7943 39.4332V39.4329ZM90.7342 39.4329C89.9796 39.4329 89.3798 39.1575 88.9352 38.6062C88.4904 38.0551 88.3355 37.396 88.4704 36.6296C88.6055 35.8581 88.9677 35.2229 89.5575 34.7243C90.1471 34.2258 90.8394 33.9765 91.6337 33.9765C92.3883 33.9765 92.988 34.2545 93.4328 34.8107C93.8773 35.3668 94.0349 36.0282 93.905 36.7948C93.7651 37.5665 93.4016 38.199 92.8143 38.6924C92.2269 39.1861 91.5336 39.4327 90.7342 39.4327V39.4329ZM90.8467 38.5912C91.3813 38.5912 91.8574 38.4146 92.2746 38.0614C92.6919 37.7082 92.9481 37.261 93.0432 36.7199C93.1379 36.1787 93.0381 35.7267 92.7432 35.3634C92.4484 35.0002 92.0335 34.8183 91.499 34.8183C90.9691 34.8183 90.4994 34.9976 90.0896 35.3557C89.6799 35.7141 89.4275 36.1638 89.3326 36.705C89.2377 37.246 89.3338 37.6958 89.6212 38.054C89.9084 38.4123 90.317 38.5914 90.8467 38.5914V38.5912ZM95.2466 38.5086H97.3905L97.2406 39.3352H94.2422L95.1643 34.0742H96.0263L95.2466 38.5086ZM99.7968 39.4329C99.187 39.4329 98.7173 39.2613 98.3875 38.9182C98.0576 38.575 97.9401 38.1327 98.0353 37.5915L98.6575 34.0742H99.5195L98.9123 37.539C98.8573 37.8596 98.906 38.1151 99.0585 38.3056C99.2108 38.496 99.472 38.5912 99.8419 38.5912C100.216 38.5912 100.516 38.4934 100.741 38.2981C100.966 38.1028 101.106 37.8499 101.161 37.5391L101.768 34.0743H102.63L102.008 37.5917C101.908 38.183 101.657 38.6377 101.255 38.9559C100.853 39.2741 100.367 39.4331 99.7969 39.4331L99.7968 39.4329ZM107.015 34.0742L106.873 34.901H105.396L104.617 39.3352H103.755L104.534 34.901H103.05L103.192 34.0742H107.015ZM107.652 34.0742H108.514L107.592 39.3352H106.73L107.652 34.0742ZM111.115 39.4329C110.361 39.4329 109.761 39.1575 109.316 38.6062C108.872 38.0551 108.717 37.396 108.852 36.6296C108.987 35.8581 109.349 35.2229 109.939 34.7243C110.528 34.2258 111.221 33.9765 112.015 33.9765C112.77 33.9765 113.369 34.2545 113.814 34.8107C114.259 35.3668 114.416 36.0282 114.286 36.7948C114.146 37.5665 113.783 38.199 113.196 38.6924C112.608 39.1861 111.915 39.4327 111.115 39.4327V39.4329ZM111.228 38.5912C111.763 38.5912 112.239 38.4146 112.656 38.0614C113.073 37.7082 113.329 37.261 113.424 36.7199C113.519 36.1787 113.419 35.7267 113.124 35.3634C112.83 35.0002 112.415 34.8183 111.88 34.8183C111.35 34.8183 110.881 34.9976 110.471 35.3557C110.061 35.7141 109.809 36.1638 109.714 36.705C109.619 37.246 109.715 37.6958 110.002 38.054C110.29 38.4123 110.698 38.5914 111.228 38.5914V38.5912ZM114.624 39.3352L115.546 34.0742H116.198L118.064 37.6894L118.694 34.0742H119.556L118.634 39.3352H117.982L116.123 35.72L115.486 39.3352H114.624ZM121.43 39.4329C120.91 39.4329 120.486 39.3177 120.159 39.0872C119.832 38.8569 119.618 38.5411 119.518 38.1402L120.298 37.7343C120.423 38.3105 120.82 38.5985 121.49 38.5985C121.794 38.5985 122.041 38.5385 122.228 38.4182C122.415 38.2979 122.529 38.1378 122.569 37.9372C122.619 37.7116 122.559 37.5377 122.389 37.4148C122.219 37.2921 121.944 37.1682 121.565 37.0428C121.445 37.003 121.335 36.9628 121.235 36.9226C121.135 36.8827 121.03 36.8324 120.92 36.7722C120.81 36.7121 120.717 36.6508 120.642 36.588C120.568 36.5255 120.493 36.4517 120.418 36.3664C120.343 36.2813 120.29 36.1909 120.26 36.0959C120.23 36.0008 120.205 35.8905 120.185 35.7651C120.165 35.64 120.173 35.5071 120.208 35.3668C120.288 34.9109 120.506 34.565 120.864 34.3297C121.221 34.0942 121.624 33.9765 122.074 33.9765C122.504 33.9765 122.865 34.0806 123.157 34.2883C123.45 34.4963 123.658 34.7757 123.783 35.1263L123.026 35.5246C122.846 35.0486 122.507 34.8107 122.007 34.8107C121.767 34.8107 121.562 34.8659 121.392 34.976C121.222 35.0862 121.117 35.2366 121.077 35.4271C121.033 35.6527 121.091 35.8267 121.254 35.9495C121.416 36.0722 121.682 36.1987 122.052 36.329C122.287 36.4143 122.472 36.4893 122.607 36.5546C122.742 36.6197 122.898 36.7161 123.075 36.8439C123.252 36.9718 123.371 37.1346 123.431 37.3325C123.491 37.5304 123.496 37.7597 123.446 38.0203C123.361 38.4762 123.136 38.8257 122.772 39.0687C122.407 39.3117 121.959 39.4332 121.43 39.4332V39.4329Z" fill="#292323"></path>
    <path d="M80.0546 4.56582C78.3799 2.5704 76.0349 1.57208 73.0203 1.57208H62.4266L57.2764 30.8825H63.976L65.6088 21.6706H69.9217C73.2432 21.6706 75.9722 20.7846 78.1078 19.0118C80.2433 17.2394 81.5204 14.9155 81.9392 12.0401C82.3578 9.05348 81.7296 6.56212 80.0546 4.56582ZM75.2395 11.6214C75.0157 12.7938 74.4995 13.715 73.6901 14.3851C72.8803 15.0549 71.8479 15.39 70.5916 15.39H66.6975L68.0375 7.85306H71.9316C73.2716 7.85306 74.2135 8.19512 74.7581 8.87889C75.3022 9.56318 75.4625 10.4772 75.2395 11.6216V11.6214ZM83.8808 6.99452C83.2801 6.25522 83.0642 5.36866 83.2317 4.33569C83.3993 3.33076 83.9083 2.45133 84.7601 1.69776C85.6113 0.944012 86.5534 0.567139 87.5865 0.567139C88.6197 0.567139 89.4497 0.937397 90.0779 1.67669C90.7058 2.41651 90.9364 3.30308 90.7688 4.33552C90.6013 5.36866 90.0915 6.25505 89.2404 6.99435C88.3885 7.73417 87.4325 8.1039 86.3722 8.1039C85.3119 8.1039 84.4809 7.73434 83.8808 6.99452ZM128 9.94649H120.756L113.261 18.6139L116.276 1.57208H109.995L107.918 13.3934C107.255 12.3858 106.389 11.5365 105.321 10.8466C103.786 9.85614 101.929 9.3602 99.7521 9.3602C96.5974 9.3602 93.8482 10.3651 91.5034 12.375C89.6417 13.9708 88.3718 15.9021 87.6891 18.1663L89.1356 9.94649H82.8548L79.1702 30.8825H85.451L87.135 21.3134C86.9825 23.9789 87.6974 26.262 89.2839 28.1607C91.1264 30.3662 93.7081 31.4686 97.0305 31.4686C99.0403 31.4686 100.925 31.0218 102.683 30.1286C103.67 29.6276 104.546 28.9903 105.313 28.2169L104.845 30.8823H111.125L112.8 21.3355L117.825 30.8823H124.525L118.746 20.4143L128 9.94632L128 9.94649ZM101.846 22.9268C100.729 24.4905 99.2771 25.2717 97.4911 25.2717C96.123 25.2717 95.0627 24.8045 94.3088 23.8689C93.5552 22.9339 93.3039 21.7544 93.5552 20.3308C93.8066 18.9072 94.462 17.7557 95.5231 16.8764C96.5838 15.997 97.8117 15.5575 99.208 15.5575C101.05 15.5575 102.292 16.3112 102.934 17.8185L107.568 15.3834L105.8 25.4435L101.846 22.9269L101.846 22.9268Z" fill="#292323"></path>
    <path d="M56.1314 5.59182C53.6329 2.52148 50.2901 0.985961 46.1029 0.985961C41.5526 0.985961 37.6514 2.36777 34.3998 5.13122C31.4667 7.6238 29.5536 10.7657 28.6526 14.5523H16.0751L15.0702 20.4145H22.6073C21.0716 23.4293 18.2107 24.9366 14.0235 24.9366C11.4273 24.9366 9.48045 24.1411 8.18237 22.5501C6.88429 20.9588 6.47208 18.8515 6.94713 16.2273C7.39329 13.6038 8.53104 11.4958 10.3597 9.90454C12.1877 8.31331 14.3721 7.51796 16.9126 7.51796C20.1224 7.51796 22.3979 8.76034 23.7377 11.2446L29.893 8.02034C28.8044 5.78731 27.2133 4.05682 25.1197 2.8282C23.0259 1.6001 20.5273 0.985786 17.6244 0.985786C13.2697 0.985786 9.466 2.38204 6.21428 5.17299C2.96185 7.96481 0.972869 11.51 0.247323 15.8086C-0.478745 20.1633 0.393894 23.8626 2.86437 26.9047C5.33485 29.9476 8.83115 31.4688 13.3533 31.4688C17.7079 31.4688 21.4412 30.1916 24.554 27.6374C26.2765 26.2239 27.636 24.5121 28.6362 22.5043C29.1022 24.0734 29.8788 25.5264 30.9662 26.8628C33.4642 29.9338 36.835 31.4686 41.0784 31.4686C42.8307 31.4686 44.4863 31.261 46.0457 30.8458C47.4616 30.4689 48.134 28.8504 47.4014 27.5814L44.6591 22.8319L41.2104 26.5197C40.9517 26.7963 40.5684 26.8918 40.2101 26.7693C39.8519 26.6466 39.6075 26.3362 39.5727 25.9592L37.923 8.13471C37.8885 7.76132 38.0687 7.41299 38.3933 7.22552C38.718 7.03804 39.1098 7.05614 39.4158 7.27269L53.9941 17.5901C54.313 17.8159 54.489 18.2083 54.4063 18.5902C54.3278 18.9524 54.0566 19.2282 53.694 19.3124L48.7759 20.4554L51.2789 24.7908C52.0488 26.1244 53.9191 26.3007 54.904 25.117C56.8792 22.7428 58.1608 19.9194 58.7485 16.6463C59.5024 12.3479 58.6296 8.66303 56.1314 5.59182Z" fill="#D00005"></path>
  </g>
  <defs>
    <clipPath id="clip0_445_10">
      <rect width="128" height="38.8658" fill="white" transform="translate(0 0.567108)"></rect>
    </clipPath>
  </defs>
</svg>
